# xmcd
#
# Track frame offsets:
#	150
#	21117
#	35710
#	47654
#	57785
#	72927
#	86492
#	108845
#	125556
#	137006
#	153040
#	169104
#	182382
#	198683
#	234560
#
# Disc length: 3131 seconds
#
# Revision: 0
# Processed by: cddbd v1.5.2PL0 Copyright (c) Steve Scherf et al.
# Submitted via: EasyCDDAExtractor 11.1.0.1
#
DISCID=c30c390f
DTITLE=Phil Quirk - Lumiere
DYEAR=1900
DGENRE=Folk-Rock
TTITLE0=Cocoon
TTITLE1=God Bless The Hobo
TTITLE2=Yeah Yeah Yeah
TTITLE3=Grand Central station
TTITLE4=Doctor
TTITLE5=Lovers Arms
TTITLE6=Brunswick Street Blues
TTITLE7=Angel's Leaving
TTITLE8=Simple Man
TTITLE9=Pedro
TTITLE10=All Right On The Night
TTITLE11=Step Away
TTITLE12=Birds Have Flown
TTITLE13=Nashville Road
TTITLE14=track title 15
EXTD=
EXTT0=
EXTT1=
EXTT2=
EXTT3=
EXTT4=
EXTT5=
EXTT6=
EXTT7=
EXTT8=
EXTT9=
EXTT10=
EXTT11=
EXTT12=
EXTT13=
EXTT14=
PLAYORDER=
